<?xml version="1.0" standalone="no"?>
<!DOCTYPE svg PUBLIC "-//W3C//DTD SVG 20010904//EN"
 "http://www.w3.org/TR/2001/REC-SVG-20010904/DTD/svg10.dtd">
<svg version="1.0" xmlns="http://www.w3.org/2000/svg"
 width="302.000000pt" height="293.000000pt" viewBox="0 0 302.000000 293.000000"
 preserveAspectRatio="xMidYMid meet">

<g transform="translate(0.000000,293.000000) scale(0.100000,-0.100000)"
fill="#000000" stroke="none">
<path d="M1345 2819 c-485 -66 -888 -387 -1060 -844 -29 -76 -31 -98 -9 -93 9
2 24 28 35 63 81 241 269 484 488 630 157 104 319 169 505 201 136 24 378 15
508 -19 222 -58 407 -161 569 -314 144 -137 231 -267 306 -452 25 -62 49 -107
58 -109 22 -5 19 10 -21 112 -164 414 -520 717 -949 807 -106 23 -329 32 -430
18z"/>
<path d="M260 1030 c0 -6 16 -52 36 -103 152 -394 481 -684 904 -794 130 -34
381 -43 520 -19 415 73 762 325 948 692 41 80 92 205 92 225 0 6 -7 9 -16 7
-9 -2 -30 -42 -53 -98 -67 -171 -163 -315 -297 -447 -365 -359 -916 -460
-1392 -255 -305 131 -549 385 -672 699 -23 58 -45 99 -54 101 -9 2 -16 -2 -16
-8z"/>
</g>
</svg>
