<?xml version="1.0" standalone="no"?>
<!DOCTYPE svg PUBLIC "-//W3C//DTD SVG 20010904//EN"
 "http://www.w3.org/TR/2001/REC-SVG-20010904/DTD/svg10.dtd">
<svg version="1.0" xmlns="http://www.w3.org/2000/svg"
 width="120.000000pt" height="33.000000pt" viewBox="0 0 120.000000 33.000000"
 preserveAspectRatio="xMidYMid meet">

<g transform="translate(0.000000,33.000000) scale(0.100000,-0.100000)"
fill="#000000" stroke="none">
<path d="M69 273 l-24 -28 28 24 c25 23 32 31 24 31 -2 0 -14 -12 -28 -27z"/>
<path d="M275 270 c10 -11 20 -20 23 -20 3 0 -3 9 -13 20 -10 11 -20 20 -23
20 -3 0 3 -9 13 -20z"/>
<path d="M397 203 c-12 -11 -7 -41 9 -57 22 -23 54 -20 54 4 0 13 -6 20 -17
19 -11 0 -13 -3 -5 -6 17 -7 15 -23 -3 -23 -13 0 -35 28 -35 45 0 3 10 10 23
15 21 8 21 9 1 9 -11 1 -24 -2 -27 -6z"/>
<path d="M707 190 c-15 -15 -16 -22 -7 -39 13 -25 50 -28 50 -4 0 15 1 15 14
-2 15 -20 46 -15 46 8 0 26 -29 42 -51 29 -15 -10 -19 -9 -19 2 0 23 -13 25
-33 6z m23 -31 c0 -11 -4 -17 -10 -14 -5 3 -10 13 -10 21 0 8 5 14 10 14 6 0
10 -9 10 -21z m63 7 c6 -16 -2 -28 -14 -20 -12 7 -11 34 0 34 5 0 11 -6 14
-14z"/>
<path d="M953 192 c-6 -4 -9 -19 -6 -33 4 -20 11 -26 29 -26 19 0 22 2 13 13
-6 8 -9 20 -6 28 6 16 -14 28 -30 18z m14 -34 c-3 -8 -6 -5 -6 6 -1 11 2 17 5
13 3 -3 4 -12 1 -19z"/>
<path d="M464 174 c3 -9 6 -22 6 -30 0 -8 3 -14 8 -14 4 0 7 14 7 30 0 19 -5
30 -14 30 -8 0 -11 -6 -7 -16z"/>
<path d="M505 179 c-3 -5 -1 -17 4 -28 9 -15 21 -19 58 -19 38 1 43 2 23 8
-18 6 -20 8 -7 9 12 1 17 7 15 19 -2 13 -14 17 -46 19 -23 0 -44 -3 -47 -8z
m30 -9 c3 -5 1 -10 -4 -10 -6 0 -11 5 -11 10 0 6 2 10 4 10 3 0 8 -4 11 -10z
m50 0 c3 -5 1 -10 -4 -10 -6 0 -11 5 -11 10 0 6 2 10 4 10 3 0 8 -4 11 -10z
m-25 -20 c0 -5 -10 -10 -22 -9 -22 0 -22 1 -3 9 11 5 21 9 23 9 1 1 2 -3 2 -9z"/>
<path d="M614 174 c3 -9 6 -22 6 -30 0 -8 5 -14 10 -14 6 0 8 11 4 25 -3 14
-2 25 4 25 5 0 13 -12 17 -27 4 -16 9 -23 12 -16 7 20 -16 53 -38 53 -15 0
-19 -5 -15 -16z"/>
<path d="M814 174 c3 -9 6 -22 6 -30 0 -8 3 -14 8 -14 4 0 7 14 7 30 0 19 -5
30 -14 30 -8 0 -11 -6 -7 -16z"/>
<path d="M854 174 c3 -9 6 -22 6 -30 0 -8 4 -14 9 -14 4 0 6 12 3 26 -3 19 -1
25 7 20 6 -4 11 -13 11 -21 0 -8 5 -17 10 -20 7 -4 9 2 4 19 -3 15 -2 26 4 26
5 0 13 -12 17 -27 4 -16 9 -23 12 -16 9 25 -15 50 -52 51 -30 1 -36 -2 -31
-14z"/>
<path d="M1005 180 c-9 -14 13 -50 31 -50 8 0 17 7 20 15 11 29 -35 61 -51 35z
m38 -14 c6 -16 -2 -28 -14 -20 -12 7 -11 34 0 34 5 0 11 -6 14 -14z"/>
<path d="M1064 175 c3 -9 6 -23 6 -31 0 -8 4 -14 9 -14 4 0 6 12 3 28 -5 25
-4 26 13 12 16 -13 18 -13 13 0 -2 8 -15 17 -28 18 -18 3 -21 0 -16 -13z"/>
<path d="M1119 178 c-1 -7 -3 -25 -5 -41 -1 -15 1 -25 5 -22 12 6 19 75 9 75
-4 0 -9 -6 -9 -12z"/>
<path d="M65 50 c10 -11 20 -20 23 -20 3 0 -3 9 -13 20 -10 11 -20 20 -23 20
-3 0 3 -9 13 -20z"/>
<path d="M274 48 l-19 -23 23 19 c21 18 27 26 19 26 -2 0 -12 -10 -23 -22z"/>
<path d="M163 3 c9 -2 23 -2 30 0 6 3 -1 5 -18 5 -16 0 -22 -2 -12 -5z"/>
</g>
</svg>
